<?xml version="1.0" encoding="UTF-8" standalone="no"?>
<svg
   xmlns:dc="http://purl.org/dc/elements/1.1/"
   xmlns:cc="http://creativecommons.org/ns#"
   xmlns:rdf="http://www.w3.org/1999/02/22-rdf-syntax-ns#"
   xmlns:svg="http://www.w3.org/2000/svg"
   xmlns="http://www.w3.org/2000/svg"
   x="0px"
   y="0px"
   version="1.0"
   viewBox="0 0 55.972 100"
   xml:space="preserve"
   enable-background="new 0 0 55.972 100"
   id="Layer_1"><defs
     id="defs25" /><g
     style="fill:#16a085"
     id="g3"><path
       style="fill:#16a085"
       id="path5"
       d="m38.024 81.513c0.712 0 1.289-0.637 1.289-1.42v-1.345c0-0.783-0.577-1.42-1.289-1.42h-20.073c-0.713 0-1.291 0.637-1.291 1.42v1.345c0 0.783 0.578 1.42 1.291 1.42h20.073z" /></g><g
     style="fill:#16a085"
     id="g7"><path
       style="fill:#16a085"
       id="path9"
       d="m38.024 87.632c0.712 0 1.289-0.637 1.289-1.422v-1.344c0-0.784-0.577-1.421-1.289-1.421h-20.073c-0.713 0-1.291 0.637-1.291 1.421v1.344c0 0.785 0.578 1.422 1.291 1.422h20.073z" /></g><g
     style="fill:#16a085"
     id="g11"><path
       style="fill:#16a085"
       id="path13"
       d="m38.024 93.75c0.712 0 1.289-0.637 1.289-1.421v-1.344c0-0.785-0.577-1.422-1.289-1.422h-20.073c-0.713 0-1.291 0.637-1.291 1.422v1.344c0 0.784 0.578 1.421 1.291 1.421h20.073z" /></g><g
     style="fill:#16a085"
     id="g15"><path
       style="fill:#16a085"
       id="path17"
       d="m34.601 95.89c-1.212 2.416-3.712 4.11-6.598 4.11-2.869 0-5.41-1.719-6.632-4.109h13.23z" /></g><path
     style="fill:#16a085"
     id="path19"
     d="m27.986 0c-15.455 0-27.986 12.53-27.986 27.986 0 5.089 1.429 9.82 3.731 13.973 6.873 12.382 8.694 19.335 9.815 26.065 0.941 5.64 2.243 6.95 6.504 6.95h7.936 7.936c4.262 0 5.564-1.311 6.505-6.95 1.121-6.729 2.942-13.683 9.815-26.065 2.302-4.153 3.73-8.884 3.73-13.973 0-15.456-12.53-27.986-27.986-27.986z" /><metadata
     id="metadata21"><rdf:RDF><cc:Work><dc:format>image/svg+xml</dc:format><dc:type
           rdf:resource="http://purl.org/dc/dcmitype/StillImage" /><cc:license
           rdf:resource="http://creativecommons.org/licenses/publicdomain/" /><dc:publisher><cc:Agent
             rdf:about="http://openclipart.org/"><dc:title>Openclipart</dc:title></cc:Agent></dc:publisher><dc:title></dc:title><dc:date>2011-08-21T08:38:50</dc:date><dc:description>Light bulb.</dc:description><dc:source>https://openclipart.org/detail/155965/light-bulb-minimal-design-by-mrtossum</dc:source><dc:creator><cc:Agent><dc:title>MrTossum</dc:title></cc:Agent></dc:creator><dc:subject><rdf:Bag><rdf:li>Black</rdf:li><rdf:li>Bulb</rdf:li><rdf:li>Design</rdf:li><rdf:li>Light</rdf:li><rdf:li>Minimal</rdf:li></rdf:Bag></dc:subject></cc:Work><cc:License
         rdf:about="http://creativecommons.org/licenses/publicdomain/"><cc:permits
           rdf:resource="http://creativecommons.org/ns#Reproduction" /><cc:permits
           rdf:resource="http://creativecommons.org/ns#Distribution" /><cc:permits
           rdf:resource="http://creativecommons.org/ns#DerivativeWorks" /></cc:License></rdf:RDF></metadata></svg>
